<svg width="16" height="15" viewBox="0 0 16 15" fill="none" xmlns="http://www.w3.org/2000/svg">
<path fill-rule="evenodd" clip-rule="evenodd" d="M3.28637 4.61353H0.244401C0.109394 4.61353 0 4.72424 0 4.86076V14.7467C0 14.8833 0.109394 14.994 0.244401 14.994H3.28637C3.42138 14.994 3.53077 14.8833 3.53077 14.7467V4.86076C3.53077 4.72424 3.42138 4.61353 3.28637 4.61353Z" fill="white"/>
<path fill-rule="evenodd" clip-rule="evenodd" d="M2.06044 0C0.924304 0 0 0.905276 0 2.018C0 3.13123 0.924304 4.03685 2.06044 4.03685C3.19568 4.03685 4.11923 3.13118 4.11923 2.018C4.11928 0.905276 3.19568 0 2.06044 0Z" fill="white"/>
<path fill-rule="evenodd" clip-rule="evenodd" d="M11.3958 4.61353C10.169 4.61353 9.26217 5.13255 8.71212 5.7223V5.09507C8.71212 4.9617 8.60227 4.85355 8.46671 4.85355H5.54155C5.40599 4.85355 5.29614 4.9617 5.29614 5.09507V14.7524C5.29614 14.8858 5.40599 14.9939 5.54155 14.9939H8.58932C8.72488 14.9939 8.83472 14.8858 8.83472 14.7524V9.97427C8.83472 8.36415 9.2791 7.73687 10.4195 7.73687C11.6616 7.73687 11.7603 8.74247 11.7603 10.0571V14.7525C11.7603 14.8859 11.8701 14.994 12.0057 14.994H15.0546C15.1901 14.994 15.3 14.8859 15.3 14.7525V9.45524C15.3 7.06105 14.8361 4.61353 11.3958 4.61353Z" fill="white"/>
</svg>
