<svg width="16" height="13" viewBox="0 0 16 13" fill="none" xmlns="http://www.w3.org/2000/svg">
<path fill-rule="evenodd" clip-rule="evenodd" d="M5.96907 13C5.27718 13 4.56503 12.9444 3.8486 12.8329C2.58677 12.6363 1.30944 11.9811 0.947991 11.7849L0 11.2703L1.02636 10.9353C2.1483 10.569 2.83079 10.3418 3.67563 9.98603C2.82969 9.57934 2.17772 8.84775 1.86388 7.90203L1.62511 7.18244L1.82091 7.21213C1.63524 7.02635 1.48864 6.83779 1.37499 6.66632C0.970818 6.05688 0.75683 5.31221 0.802362 4.67405L0.847284 4.04595L1.22606 4.19162C1.06628 3.89205 0.950798 3.57212 0.882928 3.23681C0.717524 2.41906 0.855951 1.55029 1.27282 0.790587L1.60277 0.189272L2.04405 0.715453C3.43967 2.37979 5.20736 3.36708 7.30536 3.6561C7.21967 3.06969 7.28388 2.50377 7.4964 1.99649C7.74384 1.40584 8.18402 0.904984 8.76898 0.547976C9.41863 0.151583 10.2065 -0.0404934 10.9873 0.00713193C11.8158 0.0576657 12.568 0.365837 13.1654 0.898925C13.4572 0.82367 13.6721 0.743325 13.9627 0.634744C14.1375 0.569426 14.3357 0.495261 14.5838 0.410432L15.4978 0.0977776L14.9017 1.78781C14.941 1.78454 14.9816 1.78175 15.0239 1.77993L16 1.73606L15.4231 2.51879C15.39 2.56363 15.3816 2.57635 15.3699 2.59393C15.3234 2.66349 15.2655 2.75001 14.4736 3.79971C14.2754 4.06256 14.1764 4.4049 14.1948 4.76385C14.265 6.1279 14.0964 7.36203 13.6935 8.43185C13.3124 9.44398 12.7218 10.3124 11.9384 11.0129C10.9689 11.8797 9.73271 12.4731 8.26398 12.7765C7.54352 12.9254 6.76985 13 5.96907 13Z" fill="white"/>
</svg>
