<svg width="1440" height="478" viewBox="0 0 1440 478" fill="none" xmlns="http://www.w3.org/2000/svg">
<path d="M-291 311.675C-273.935 284.13 -236.466 273.279 -207.252 281.44C-178.038 289.509 -155.408 307.501 -129.347 324.659C-102.729 342.095 -72.9585 356.841 -41.3327 363.055C-7.85205 369.64 27.7618 366.858 60.1296 357.398C84.4285 350.256 108.356 337.179 121.433 315.477C134.51 293.775 133.119 262.149 113.365 246.29C93.6101 230.431 64.0249 238.036 56.6981 257.976C50.577 274.484 55.6778 291.364 61.8916 299.896C81.0897 325.865 119.208 329.667 150.555 322.248C181.903 314.828 208.798 294.795 232.819 273.279C256.84 251.762 297.276 210.027 323.245 191.015C359.415 164.582 406.158 147.61 458.188 156.235C510.217 164.861 549.912 202.7 574.118 243.601" stroke="white" stroke-width="5" stroke-miterlimit="10" stroke-linecap="round" stroke-linejoin="round"/>
<path d="M302.934 143.9C302.934 143.9 352.366 80.8341 458.094 93.1691" stroke="white" stroke-width="5" stroke-miterlimit="10" stroke-linecap="round" stroke-linejoin="round"/>
<path d="M1609.69 162.172C1577 208.042 1525.84 225.075 1485.24 218.707C1454.78 214.005 1431.78 190.642 1416.39 164.035C1401 137.429 1386.29 108.102 1359.43 92.7868C1336.28 79.5015 1307.26 79.3564 1281.86 87.5394C1256.45 95.7224 1224.06 115.727 1204.14 133.316C1156.47 175.431 1122.69 226.661 1080.72 274.49C1032.26 329.949 972.737 394.479 889.635 410.483C804.593 426.961 706.967 395.33 657.81 324.535" stroke="white" stroke-width="5" stroke-miterlimit="10" stroke-linecap="round" stroke-linejoin="round"/>
</svg>
