<svg width="1440" height="445" viewBox="0 0 1440 445" fill="none" xmlns="http://www.w3.org/2000/svg">
<path d="M-334 289.636C-318.142 264.039 -283.322 253.955 -256.174 261.54C-229.025 269.038 -207.996 285.758 -183.777 301.703C-159.042 317.906 -131.376 331.609 -101.987 337.384C-70.8732 343.503 -37.7776 340.917 -7.69856 332.126C14.8823 325.49 37.1182 313.338 49.2705 293.17C61.4227 273.003 60.13 243.613 41.7723 228.875C23.4146 214.137 -4.07869 221.205 -10.8874 239.735C-16.5757 255.076 -11.8356 270.762 -6.0611 278.691C11.7795 302.823 47.2021 306.357 76.3331 299.462C105.464 292.567 130.458 273.951 152.78 253.955C175.103 233.96 212.68 195.176 236.812 177.508C270.425 152.945 313.863 137.173 362.213 145.188C410.564 153.204 447.451 188.368 469.946 226.376" stroke="white" stroke-width="5" stroke-miterlimit="10" stroke-linecap="round" stroke-linejoin="round"/>
<path d="M217.938 133.725C217.938 133.725 263.875 75.1184 362.127 86.5812" stroke="white" stroke-width="5" stroke-miterlimit="10" stroke-linecap="round" stroke-linejoin="round"/>
<path d="M1432.29 150.705C1401.91 193.332 1354.37 209.16 1316.64 203.242C1288.34 198.872 1266.96 177.162 1252.66 152.437C1238.36 127.711 1224.69 100.458 1199.73 86.2259C1178.22 73.8799 1151.25 73.7451 1127.64 81.3495C1104.03 88.9538 1073.94 107.544 1055.42 123.889C1011.12 163.027 979.724 210.633 940.727 255.081C895.69 306.618 840.379 366.586 763.153 381.458C684.125 396.77 593.402 367.376 547.721 301.587" stroke="white" stroke-width="5" stroke-miterlimit="10" stroke-linecap="round" stroke-linejoin="round"/>
</svg>
