<svg width="1440" height="445" viewBox="0 0 1440 445" fill="none" xmlns="http://www.w3.org/2000/svg">
<g opacity="0.35">
<path d="M1713.22 154.408C1697.37 180.006 1662.55 190.09 1635.4 182.505C1608.25 175.007 1587.22 158.287 1563 142.342C1538.27 126.139 1510.6 112.436 1481.21 106.661C1450.1 100.542 1417 103.128 1386.92 111.919C1364.34 118.555 1342.11 130.707 1329.95 150.875C1317.8 171.042 1319.09 200.432 1337.45 215.17C1355.81 229.908 1383.3 222.84 1390.11 204.31C1395.8 188.969 1391.06 173.283 1385.29 165.354C1367.45 141.222 1332.02 137.688 1302.89 144.583C1273.76 151.478 1248.77 170.094 1226.44 190.09C1204.12 210.085 1166.54 248.869 1142.41 266.537C1108.8 291.1 1065.36 306.872 1017.01 298.857C968.661 290.841 931.773 255.677 909.279 217.669" stroke="#DEDEDE" stroke-width="5" stroke-miterlimit="10" stroke-linecap="round" stroke-linejoin="round"/>
<path d="M1161.29 310.32C1161.29 310.32 1115.35 368.927 1017.1 357.464" stroke="#DEDEDE" stroke-width="5" stroke-miterlimit="10" stroke-linecap="round" stroke-linejoin="round"/>
<path d="M-53.0703 293.34C-22.6865 250.713 24.8544 234.885 62.5823 240.802C90.8891 245.173 112.26 266.883 126.56 291.608C140.86 316.334 154.537 343.587 179.494 357.819C201.007 370.165 227.972 370.3 251.582 362.695C275.191 355.091 305.289 336.501 323.801 320.156C368.104 281.018 399.5 233.411 438.498 188.964C483.534 137.427 538.846 77.4591 616.072 62.5874C695.1 47.2745 785.823 76.6689 831.504 142.458" stroke="#DEDEDE" stroke-width="5" stroke-miterlimit="10" stroke-linecap="round" stroke-linejoin="round"/>
</g>
</svg>
