<svg width="62" height="119" viewBox="0 0 62 119" fill="none" xmlns="http://www.w3.org/2000/svg">
<path d="M62 80L0 87.5288V119L62 112.55V80Z" fill="#FF8000"/>
<path d="M62 0L0 7.52877V39L62 32.5498V0Z" fill="#FF8000"/>
<rect y="10" width="62" height="101" fill="#FF8000"/>
<path d="M18.0197 22.4593H15.5397V30.6033C15.5397 31.1313 15.2837 31.3873 14.8837 31.3873H14.3397V33.7073H15.1397C17.0917 33.7073 18.0197 32.8113 18.0197 30.8273V22.4593ZM25.2322 22.2193C21.9042 22.2193 19.3282 24.5553 19.3282 28.0593C19.3282 31.5633 21.9042 33.8993 25.2322 33.8993C28.5602 33.8993 31.1362 31.5633 31.1362 28.0593C31.1362 24.5553 28.5602 22.2193 25.2322 22.2193ZM25.2322 24.7793C27.0242 24.7793 28.4002 26.0433 28.4002 28.0593C28.4002 30.0753 27.0242 31.3393 25.2322 31.3393C23.4402 31.3393 22.0642 30.0753 22.0642 28.0593C22.0642 26.0433 23.4402 24.7793 25.2322 24.7793ZM34.9326 22.4593H32.4526V33.6593H34.9326V22.4593ZM46.8421 22.4593H44.3621V29.3873H44.3461L38.9861 22.4593H36.8901V33.6593H39.3701V26.7633H39.3861L44.7301 33.6593H46.8421V22.4593Z" fill="white"/>
<g clip-path="url(#clip0)">
<path d="M24.6524 67.7218C24.6524 68.4514 24.3605 71.8076 21.9528 72.5372C20.2747 73.0479 19.3991 71.7346 19.3991 68.7432V57.726C19.3991 56.7046 19.4721 55.0994 20.4206 53.9321C21.0043 53.2024 21.9528 52.6187 22.8283 52.5458C23.8498 52.4728 24.7253 53.3484 24.7253 55.0994V56.7775C24.7253 57.1424 25.0172 57.3612 25.382 57.2153L29.5408 55.6831C29.6867 55.6102 29.8326 55.4642 29.8326 55.2454V53.3484C29.8326 48.8248 25.8927 46.1252 21.6609 47.2196C15.897 48.7518 14 54.005 14 57.5072V71.1509C14 76.1123 17.4292 78.52 20.4206 78.52C24.7983 78.52 29.8326 75.0909 29.8326 67.7218V59.2582C29.8326 58.8205 29.4678 58.7475 29.176 58.8205L22.4635 61.3012C22.0258 61.4471 22.0258 61.666 22.0258 61.9578V65.8248C22.0258 66.1896 22.3176 66.4085 22.6824 66.2625L24.6524 65.5329V67.7218Z" fill="white"/>
<path d="M47.3431 93.4764C47.7079 93.6223 47.9998 93.4034 47.9998 93.0386V64.4378C47.9998 64.2189 47.7809 64 47.562 63.8541L43.3302 62.3219C42.9654 62.176 42.6736 62.3949 42.6736 62.7597V73.8498L38.2959 72.2446V60.9356C38.2959 60.7168 38.077 60.4979 37.8581 60.3519L33.6264 58.8198C33.2616 58.6738 32.9697 58.8927 32.9697 59.2575V87.7854C32.9697 88.0043 33.1886 88.2232 33.4075 88.3691L37.6393 89.9013C38.0041 90.0472 38.2959 89.8283 38.2959 89.4635V77.9356L42.6736 79.5408V91.3605C42.6736 91.5794 42.8925 91.7983 43.1114 91.9442L47.3431 93.4764Z" fill="white"/>
</g>
<defs>
<clipPath id="clip0">
<rect width="34" height="46.4764" fill="white" transform="translate(14 47)"/>
</clipPath>
</defs>
</svg>
