<?xml version="1.0" encoding="UTF-8"?>
<svg width="26px" height="50px" viewBox="0 0 26 50" version="1.1" xmlns="http://www.w3.org/2000/svg" xmlns:xlink="http://www.w3.org/1999/xlink">
    <!-- Generator: sketchtool 55.2 (78181) - https://sketchapp.com -->
    <title>C5DA96D3-B8C9-491E-8AA5-1C77C78FD037</title>
    <desc>Created with sketchtool.</desc>
    <defs>
        <path d="M2.66628433,0.101139205 C2.66628433,0.101139205 9.8281377,9.77382606 6.07926043,20.2989719 L6.07926043,20.2989719 C3.51980369,27.4898583 0.01872236,33.2803557 0,38.6429564 L0,38.6429564 L0,38.7274243 C0.00770920707,41.1836621 0.753299662,43.5520978 2.66187907,45.9249792 L2.66187907,45.9249792 C8.07374243,52.6624062 29.1749435,48.7946652 24.7520613,25.7315921 L24.7520613,25.7315921 C21.0075893,6.20505696 2.66628433,0.101139205 2.66628433,0.101139205 Z M10.237827,40.2500695 C6.0913749,36.9969436 7.94709117,30.0450125 9.47131154,22.2928591 L9.47131154,22.2928591 C10.9966332,14.54404 8.90743811,7.95776605 10.2444349,7.79549875 L10.2444349,7.79549875 C11.5748238,7.63212003 19.8490056,14.3539872 21.3677194,25.7504862 L21.3677194,25.7504862 C22.6199149,35.1375382 17.0814002,41.1025285 12.7697509,41.1025285 L12.7697509,41.1025285 C11.8424434,41.1025285 10.9724043,40.8268964 10.237827,40.2500695 L10.237827,40.2500695 Z" id="path-1"></path>
        <linearGradient x1="49.9988468%" y1="100.000125%" x2="49.9988468%" y2="-0.000921907826%" id="linearGradient-3">
            <stop stop-color="#FB8331" offset="0%"></stop>
            <stop stop-color="#F7C331" offset="100%"></stop>
        </linearGradient>
        <path d="M0.601318151,7.78216171 C0.078193386,14.3473187 0.689423375,15.584329 2.2323661,16.346763 L2.2323661,16.346763 C3.98566006,17.2081134 6.32265111,14.0805779 6.00877625,9.35370936 L6.00877625,9.35370936 C5.69269876,4.62795221 3.36561954,0.909141428 2.23456874,0.792442345 L2.23456874,0.792442345 C2.21474506,0.790219505 2.19382007,0.789108086 2.17399639,0.789108086 L2.17399639,0.789108086 C1.09580872,0.790219505 0.904179858,3.87996666 0.601318151,7.78216171" id="path-4"></path>
        <linearGradient x1="49.9981528%" y1="100.000424%" x2="49.9981528%" y2="0.000844520444%" id="linearGradient-6">
            <stop stop-color="#FB8331" offset="0%"></stop>
            <stop stop-color="#F7C331" offset="100%"></stop>
        </linearGradient>
        <path d="M0.601318151,7.78216171 C0.078193386,14.3473187 0.689423375,15.584329 2.2323661,16.346763 L2.2323661,16.346763 C3.98566006,17.2081134 6.32265111,14.0805779 6.00877625,9.35370936 L6.00877625,9.35370936 C5.69269876,4.62795221 3.36561954,0.909141428 2.23456874,0.792442345 L2.23456874,0.792442345 C2.21474506,0.790219505 2.19382007,0.789108086 2.17399639,0.789108086 L2.17399639,0.789108086 C1.09580872,0.790219505 0.904179858,3.87996666 0.601318151,7.78216171" id="path-7"></path>
    </defs>
    <g id="Page-1" stroke="none" stroke-width="1" fill="none" fill-rule="evenodd">
        <g id="01-Home" transform="translate(-24.000000, -21.000000)">
            <g id="PROMET-LOGO" transform="translate(24.000000, 21.000000)">
                <g id="Promet-Logo-Copy" transform="translate(0.500000, 0.000000)">
                    <g id="Group-31" transform="translate(0.000000, 0.177160)">
                        <mask id="mask-2" fill="white">
                            <use xlink:href="#path-1"></use>
                        </mask>
                        <g id="Clip-30"></g>
                        <path d="M2.66628433,0.101139205 C2.66628433,0.101139205 9.8281377,9.77382606 6.07926043,20.2989719 L6.07926043,20.2989719 C3.51980369,27.4898583 0.01872236,33.2803557 0,38.6429564 L0,38.6429564 L0,38.7274243 C0.00770920707,41.1836621 0.753299662,43.5520978 2.66187907,45.9249792 L2.66187907,45.9249792 C8.07374243,52.6624062 29.1749435,48.7946652 24.7520613,25.7315921 L24.7520613,25.7315921 C21.0075893,6.20505696 2.66628433,0.101139205 2.66628433,0.101139205 Z M10.237827,40.2500695 C6.0913749,36.9969436 7.94709117,30.0450125 9.47131154,22.2928591 L9.47131154,22.2928591 C10.9966332,14.54404 8.90743811,7.95776605 10.2444349,7.79549875 L10.2444349,7.79549875 C11.5748238,7.63212003 19.8490056,14.3539872 21.3677194,25.7504862 L21.3677194,25.7504862 C22.6199149,35.1375382 17.0814002,41.1025285 12.7697509,41.1025285 L12.7697509,41.1025285 C11.8424434,41.1025285 10.9724043,40.8268964 10.237827,40.2500695 L10.237827,40.2500695 Z" id="Fill-29" fill="url(#linearGradient-3)" mask="url(#mask-2)"></path>
                    </g>
                    <g id="Group-34" transform="translate(12.114468, 14.625618)">
                        <mask id="mask-5" fill="white">
                            <use xlink:href="#path-4"></use>
                        </mask>
                        <g id="Clip-33"></g>
                        <path d="M0.601318151,7.78216171 C0.078193386,14.3473187 0.689423375,15.584329 2.2323661,16.346763 L2.2323661,16.346763 C3.98566006,17.2081134 6.32265111,14.0805779 6.00877625,9.35370936 L6.00877625,9.35370936 C5.69269876,4.62795221 3.36561954,0.909141428 2.23456874,0.792442345 L2.23456874,0.792442345 C2.21474506,0.790219505 2.19382007,0.789108086 2.17399639,0.789108086 L2.17399639,0.789108086 C1.09580872,0.790219505 0.904179858,3.87996666 0.601318151,7.78216171" id="Fill-32" fill="url(#linearGradient-6)" mask="url(#mask-5)"></path>
                    </g>
                    <g id="Group-37" transform="translate(12.114468, 14.625618)">
                        <mask id="mask-8" fill="white">
                            <use xlink:href="#path-7"></use>
                        </mask>
                        <g id="Clip-36"></g>
                        <path d="M0.601318151,7.78216171 C0.078193386,14.3473187 0.689423375,15.584329 2.2323661,16.346763 L2.2323661,16.346763 C3.98566006,17.2081134 6.32265111,14.0805779 6.00877625,9.35370936 L6.00877625,9.35370936 C5.69269876,4.62795221 3.36561954,0.909141428 2.23456874,0.792442345 L2.23456874,0.792442345 C2.21474506,0.790219505 2.19382007,0.789108086 2.17399639,0.789108086 L2.17399639,0.789108086 C1.09580872,0.790219505 0.904179858,3.87996666 0.601318151,7.78216171" id="Fill-35" fill="url(#linearGradient-6)" mask="url(#mask-8)"></path>
                    </g>
                </g>
            </g>
        </g>
    </g>
</svg>