<?xml version="1.0" encoding="UTF-8"?>
<svg width="16px" height="20px" viewBox="0 0 16 20" version="1.1" xmlns="http://www.w3.org/2000/svg" xmlns:xlink="http://www.w3.org/1999/xlink">
    <!-- Generator: sketchtool 62 (101010) - https://sketch.com -->
    <title>9DF9C92C-1771-4909-97F6-9C49134BA160</title>
    <desc>Created with sketchtool.</desc>
    <g id="Page-1" stroke="none" stroke-width="1" fill="none" fill-rule="evenodd">
        <g id="01-Home" transform="translate(-849.000000, -5835.000000)" fill="#838383" fill-rule="nonzero">
            <g id="Footer" transform="translate(73.000000, 5489.000000)">
                <g id="Accessibility-Icon_final" transform="translate(776.000000, 346.000000)">
                    <path d="M15.6381344,9.06092593 C15.3929802,8.81540123 15.0504348,8.6857716 14.7003953,8.70447531 L10.4638419,8.93466049 L12.7953202,6.34283951 C13.1274625,5.97364198 13.2223557,5.48148148 13.0939447,5.04169753 C13.0261818,4.74033951 12.8392095,4.46614198 12.5519684,4.29095679 C12.5431462,4.28481481 6.97894071,1.12975309 6.97894071,1.12975309 C6.52458498,0.87212963 5.95206324,0.928888889 5.55996838,1.27024691 L2.84192885,3.63679012 C2.34115415,4.07277778 2.29729644,4.82246914 2.744,5.3112963 C3.19073518,5.80006173 3.95883004,5.84299383 4.45957312,5.40685185 L6.52022134,3.61268519 L8.22374704,4.5782716 L5.21675889,7.92101852 C3.96986561,8.11950617 2.84796838,8.68033951 1.96727273,9.48895062 L3.53754941,11.0216667 C4.24739921,10.3916667 5.18991304,10.0071296 6.22270356,10.0071296 C8.42561265,10.0071296 10.217834,11.7565123 10.217834,13.9067593 C10.217834,14.9148457 9.82387352,15.8347531 9.17849802,16.5276235 L10.7486798,18.0603395 C11.7946877,16.9749691 12.4366482,15.514537 12.4366482,13.9067593 C12.4366482,12.9488889 12.2088221,12.0430556 11.8037312,11.2375617 L13.4436047,11.1483951 L13.0446798,15.9246296 C12.9901344,16.5774691 13.4882213,17.149784 14.1570909,17.2030864 C14.1905771,17.2057407 14.224,17.2070062 14.2571067,17.2070062 C14.8833834,17.2070062 15.415083,16.737284 15.4668142,16.1173148 L15.9788458,9.98506173 C16.0074308,9.6433642 15.8831621,9.30638889 15.6381344,9.06092593 Z" id="Path"></path>
                    <path d="M13.3876364,3.98040123 C14.5108933,3.98040123 15.4213755,3.09160494 15.4213755,1.99515432 C15.4213755,0.898765432 14.5108933,0.00987654321 13.3876364,0.00987654321 C12.264253,0.00987654321 11.3537075,0.898765432 11.3537075,1.99515432 C11.3537075,3.09160494 12.2642213,3.98040123 13.3876364,3.98040123 Z" id="Path"></path>
                    <path d="M6.22273518,17.806358 C4.01979447,17.806358 2.2275415,16.0569753 2.2275415,13.9067284 C2.2275415,13.096358 2.48227668,12.3431481 2.91740711,11.718858 L1.33018182,10.1696296 C0.503146245,11.199784 0.00872727273,12.4965741 0.00872727273,13.9067284 C0.00872727273,17.2565741 2.79079842,19.9720679 6.22273518,19.9720679 C7.66750988,19.9720679 8.99595257,19.4894753 10.0513202,18.6821914 L8.46412648,17.1330247 C7.82456917,17.5576235 7.05290119,17.806358 6.22273518,17.806358 Z" id="Path"></path>
                </g>
            </g>
        </g>
    </g>
</svg>